<svg height="512" viewBox="0 0 512 512" width="512" xmlns="http://www.w3.org/2000/svg"><g id="Filled_outline" data-name="Filled outline"><path d="m272 120h16v16h-16z" fill="#92563a"/><path d="m480 320v136a32 32 0 0 1 -32 32h-160v-136l-40 136h-56l41.94-175.28a40 40 0 0 1 39.33-32.72h46.73a8 8 0 0 0 8-8v-56h64v56a8 8 0 0 0 8 8h40a40 40 0 0 1 40 40z" fill="#fec093"/><path d="m392 216v32.51a72.1 72.1 0 0 1 -64 0v-32.51z" fill="#feb784"/><path d="m192 488h56l31.704-107.795-59.069-11.876z" fill="#fec9a3"/><path d="m432 64a56 56 0 0 1 56 56v128a0 0 0 0 1 0 0 56 56 0 0 1 -56-56v-128a0 0 0 0 1 0 0z" fill="#804a32"/><path d="m280 128h8a0 0 0 0 1 0 0v48a0 0 0 0 1 0 0h-8a24 24 0 0 1 -24-24 24 24 0 0 1 24-24z" fill="#feb784"/><path d="m432 112v56a72 72 0 1 1 -144 0v-56a63.968 63.968 0 0 1 64-64h16a64 64 0 0 1 64 64z" fill="#fec9a3"/><path d="m432 112v56a72.027 72.027 0 0 1 -101.73 65.59 82.5 82.5 0 0 0 51.75-76.57v-36.66a82.582 82.582 0 0 0 -41.15-71.39 63.727 63.727 0 0 1 11.13-.97h16a64 64 0 0 1 64 64z" fill="#fec093"/><path d="m352 24a80 80 0 0 0 -80 80v24c48 0 136-40 136-40l24 40 16 8v-32a80 80 0 0 0 -80-80z" fill="#92563a"/><path d="m432 128h8a24 24 0 0 1 24 24 24 24 0 0 1 -24 24h-8a0 0 0 0 1 0 0v-48a0 0 0 0 1 0 0z" fill="#feb784"/><path d="m480 384h-32.81a60.32 60.32 0 0 1 -15.19 48v56h-144v-56a64.125 64.125 0 0 1 -5.12-6.56 59.6 59.6 0 0 1 -9.19-46.44l-53.06-10.67 13.31-55.61a40 40 0 0 1 39.33-32.72h33.08a55.979 55.979 0 0 0 107.3 0h26.35a40.01 40.01 0 0 1 40 40z" fill="#7eb457"/><path d="m480 384h-32.81a60.32 60.32 0 0 1 -15.19 48v56h-144v-56a64.125 64.125 0 0 1 -5.12-6.56c72.15-19.48 140.72-56.88 194.25-120.31a39.693 39.693 0 0 1 2.87 14.87z" fill="#79ad54"/><path d="m296 256v144a24.006 24.006 0 0 1 -24 24h-224a24.006 24.006 0 0 1 -24-24v-144a24.006 24.006 0 0 1 24-24h224a24.025 24.025 0 0 1 24 24z" fill="#d6d6d4"/><path d="m296 256v144a24.006 24.006 0 0 1 -24 24h-224a24.006 24.006 0 0 1 -24-24v-9.69c98.11-13.27 195.9-56.77 263.5-152.62a23.922 23.922 0 0 1 8.5 18.31z" fill="#cfcfcd"/><path d="m128 456h96v32h-96z" fill="#d6d6d4"/><path d="m176 488h-80l32-128h64z" fill="#e0e0de"/><path d="m392.176 372.647a17.018 17.018 0 0 0 -22.915 5.1l-57.261 88.207 5.3 22.046 22.915-5.1 57.261-88.211a15.649 15.649 0 0 0 -5.3-22.042z" fill="#4d5e78"/><path d="m408 440-32-16-40 8v56h112a32 32 0 0 0 32-32v-24z" fill="#fec9a3"/><path d="m427.062 211.54a64.106 64.106 0 0 0 60.938 44.46 8 8 0 0 0 8-8v-128a63.972 63.972 0 0 0 -53.7-63.158 88.308 88.308 0 0 0 -74.3-40.842h-16a88.1 88.1 0 0 0 -88 88v20.305a31.989 31.989 0 0 0 16 59.695h1.61a80.228 80.228 0 0 0 38.39 53.237v34.763h-16v-16a32.036 32.036 0 0 0 -32-32h-224a32.036 32.036 0 0 0 -32 32v144a32.036 32.036 0 0 0 32 32h53.754l-12 48h-73.754v16h480v-16h-16.022a39.788 39.788 0 0 0 8.022-24v-136a48.055 48.055 0 0 0 -48-48h-40v-34.763a80.589 80.589 0 0 0 27.062-25.697zm28.938-59.54a16.019 16.019 0 0 1 -16 16v-32a16.019 16.019 0 0 1 16 16zm24-32v119.333a48.078 48.078 0 0 1 -40-47.333v-8a31.989 31.989 0 0 0 16-59.695v-20.305a88.207 88.207 0 0 0 -4.518-27.855 47.927 47.927 0 0 1 28.518 43.855zm-200-16a72.081 72.081 0 0 1 72-72h16a72.268 72.268 0 0 1 62.38 36.014q.063.117.129.234a72.006 72.006 0 0 1 9.491 35.752v16h-3.47l-21.67-36.116a8 8 0 0 0 -10.17-3.167c-.7.316-70.006 31.634-117.475 38.121-.1.01-.194.021-.292.035-2.4.326-4.716.583-6.923.768zm-16 48a16.019 16.019 0 0 1 16-16v32a16.019 16.019 0 0 1 -16-16zm32 16v-34.343c40.58-6.985 90.94-27.767 108.772-35.488l19.228 32.047v37.784a64 64 0 0 1 -128 0zm-248 248a16.019 16.019 0 0 1 -16-16v-144a16.019 16.019 0 0 1 16-16h224a16.019 16.019 0 0 1 16 16v144a16.03 16.03 0 0 1 -5.349 11.931 16.029 16.029 0 0 1 -10.651 4.069h-78.938l6.876-55.008a8 8 0 0 0 -7.938-8.992h-64a8 8 0 0 0 -7.761 6.06l-14.485 57.94zm224.811 15.981a32.069 32.069 0 0 0 4.591-.444c.833 1.156 1.694 2.3 2.6 3.405v45.058h-21.311zm-83.749 16.019 2-16h6.11l-3.825 16zm-82.816 32 28-112h48.692l-14 112zm78.816 0 2-16h28.938v16zm46.938 0v-24a8 8 0 0 0 -8-8h-14.2l3.825-16h42.505l-14.114 48zm141.937-63.746-23.144 4.629 25.174-38.783a8.983 8.983 0 0 1 12.093-2.594 7.973 7.973 0 0 1 3.749 5.042 7.454 7.454 0 0 1 -1.049 5.785zm-45.937 61.17-4.76 1.059-2.658-11.059 7.418-11.424zm16 2.576v-41.441l30.877-6.176 29.545 14.772a7.987 7.987 0 0 0 4.461.8l63.117-7.017v15.062a24.028 24.028 0 0 1 -24 24zm111.65-88h16.35v32.84l-26.928 2.992a68.449 68.449 0 0 0 10.578-35.832zm-15.65-104a32.036 32.036 0 0 1 32 32v56h-18.16a68.757 68.757 0 0 0 -24.92-38.308l-9.84 12.616a51.774 51.774 0 0 1 6.942 76.376 7.993 7.993 0 0 0 -1.8 3.464l-14.762 1.64-20.033-10.017 14.746-22.72a23.32 23.32 0 0 0 3.223-18.1 23.839 23.839 0 0 0 -11.1-15.162 25.123 25.123 0 0 0 -33.751 7.593l-57.258 88.208a8 8 0 0 0 -1.069 6.227l2.931 12.183h-11.149v-48a8 8 0 0 0 -2.023-5.317q-.867-.975-1.684-1.985c.346-.286.7-.554 1.04-.855a32.039 32.039 0 0 0 10.667-23.843v-105.085a64.413 64.413 0 0 0 37.919 30.485 62.765 62.765 0 0 0 6.86 1.614 64.021 64.021 0 0 0 70.531-39.014zm-40 0h1.524a48.328 48.328 0 0 1 -41.524 24 47.776 47.776 0 0 1 -8.418-.738 46.878 46.878 0 0 1 -5.137-1.208 48.309 48.309 0 0 1 -27.969-22.054h1.524a16.019 16.019 0 0 0 16-16v-27.683a80.039 80.039 0 0 0 48 0v27.683a16.019 16.019 0 0 0 16 16z"/><path d="m324 128a12 12 0 1 0 12 12 12.013 12.013 0 0 0 -12-12z"/><path d="m396 152a12 12 0 1 0 -12-12 12.013 12.013 0 0 0 12 12z"/><path d="m384 176h-16a8 8 0 0 1 -16 0h-16a24 24 0 0 0 48 0z"/><path d="m48 256h32v16h-32z"/><path d="m96 256h32v16h-32z"/><path d="m144 256h32v16h-32z"/><path d="m192 256h32v16h-32z"/><path d="m240 256h32v16h-32z"/></g></svg>