<svg id="Capa_1" enable-background="new 0 0 512 512" height="512" viewBox="0 0 512 512" width="512" xmlns="http://www.w3.org/2000/svg"><g><g><path d="m150 210h212v132h-212z" fill="#8690a6"/><path d="m502 30v80c0 11.05-8.95 20-20 20h-40l-40 40v-40h-40c-11.05 0-20-8.95-20-20v-80c0-11.05 8.95-20 20-20h120c11.05 0 20 8.95 20 20z" fill="#91def5"/><path d="m170 402v80c0 11.05-8.95 20-20 20h-120c-11.05 0-20-8.95-20-20v-80c0-11.05 8.95-20 20-20h40l40-40v40h40c11.05 0 20 8.95 20 20z" fill="#91def5"/><path d="m502 402v80c0 11.05-8.95 20-20 20h-120c-11.05 0-20-8.95-20-20v-80c0-11.05 8.95-20 20-20h40v-40l40 40h40c11.05 0 20 8.95 20 20z" fill="#ffda8f"/><path d="m170 30v80c0 11.05-8.95 20-20 20h-40v40l-40-40h-40c-11.05 0-20-8.95-20-20v-80c0-11.05 8.95-20 20-20h120c11.05 0 20 8.95 20 20z" fill="#ffda8f"/><path d="m362 170v40c0 22.09-17.91 40-40 40-16.05 0-115.915 0-132 0-22.09 0-40-17.91-40-40v-40z" fill="#ff7b79"/></g><g><circle cx="462" cy="70" r="10"/><circle cx="462" cy="442" r="10"/><circle cx="422" cy="70" r="10"/><circle cx="422" cy="442" r="10"/><circle cx="382" cy="70" r="10"/><circle cx="382" cy="442" r="10"/><circle cx="130" cy="70" r="10"/><circle cx="130" cy="442" r="10"/><circle cx="90" cy="70" r="10"/><circle cx="90" cy="442" r="10"/><circle cx="50" cy="70" r="10"/><circle cx="50" cy="442" r="10"/><path d="m30 140h35.857l37.071 37.071c2.861 2.861 7.161 3.714 10.898 2.168 3.736-1.548 6.173-5.194 6.173-9.239v-30h30c16.542 0 30-13.458 30-30v-80c0-16.542-13.458-30-30-30h-119.999c-16.542 0-30 13.458-30 30v80c0 16.542 13.458 30 30 30zm-10-110c0-5.514 4.486-10 10-10h120c5.514 0 10 4.486 10 10v80c0 5.514-4.486 10-10 10h-40c-5.522 0-10 4.478-10 10v15.857l-22.929-22.929c-1.876-1.874-4.419-2.928-7.071-2.928h-40c-5.514 0-10-4.486-10-10z"/><path d="m482 0h-120c-16.542 0-30 13.458-30 30v80c0 16.542 13.458 30 30 30h30v30c0 4.045 2.437 7.691 6.173 9.239 3.738 1.546 8.038.692 10.898-2.168l37.072-37.071h35.857c16.542 0 30-13.458 30-30v-80c0-16.542-13.458-30-30-30zm10 110c0 5.514-4.486 10-10 10h-40c-2.652 0-5.195 1.054-7.071 2.929l-22.929 22.928v-15.857c0-5.522-4.478-10-10-10h-40c-5.514 0-10-4.486-10-10v-80c0-5.514 4.486-10 10-10h120c5.514 0 10 4.486 10 10z"/><path d="m150 372h-30v-30c0-4.045-2.437-7.691-6.173-9.239-3.737-1.546-8.038-.692-10.898 2.168l-37.072 37.071h-35.857c-16.542 0-30 13.458-30 30v80c0 16.542 13.458 30 30 30h120c16.542 0 30-13.458 30-30v-80c0-16.542-13.458-30-30-30zm10 110c0 5.514-4.486 10-10 10h-120c-5.514 0-10-4.486-10-10v-80c0-5.514 4.486-10 10-10h40c2.652 0 5.195-1.054 7.071-2.929l22.929-22.928v15.857c0 5.522 4.478 10 10 10h40c5.514 0 10 4.486 10 10z"/><path d="m482 372h-35.857l-37.071-37.071c-2.86-2.86-7.161-3.714-10.898-2.168-3.737 1.548-6.174 5.194-6.174 9.239v30h-30c-16.542 0-30 13.458-30 30v80c0 16.542 13.458 30 30 30h120c16.542 0 30-13.458 30-30v-80c0-16.542-13.458-30-30-30zm10 110c0 5.514-4.486 10-10 10h-120c-5.514 0-10-4.486-10-10v-80c0-5.514 4.486-10 10-10h40c5.522 0 10-4.478 10-10v-15.857l22.929 22.929c1.876 1.875 4.419 2.929 7.071 2.929h40c5.514 0 10 4.486 10 10z"/><path d="m372 342v-172c0-5.522-4.478-10-10-10h-56v-10c0-16.542-13.458-30-30-30h-40c-16.542 0-30 13.458-30 30v10h-56c-5.522 0-10 4.478-10 10v172c0 5.522 4.478 10 10 10h60.999c5.522 0 10-4.478 10-10s-4.478-10-10-10h-50.999v-82.027c8.363 6.292 18.753 10.027 30 10.027h56v10c0 5.522 4.478 10 10 10s10-4.478 10-10v-10h56c11.248 0 21.637-3.735 30-10.027v82.027h-50.999c-5.522 0-10 4.478-10 10s4.478 10 10 10h60.999c5.522 0 10-4.478 10-10zm-146-192c0-5.514 4.486-10 10-10h40c5.514 0 10 4.486 10 10v10h-60zm96 90h-132c-16.542 0-30-13.458-30-30v-30h192v30c0 16.542-13.458 30-30 30z"/><circle cx="256" cy="342" r="10"/></g></g></svg>